<?xml version="1.0" standalone="no"?>
<svg viewBox="0 0 200 200" xmlns="http://www.w3.org/2000/svg">
  <path fill="#EFF3FC" d="M35.6,-62.4C48.9,-54.1,64.2,-50,72.2,-40.3C80.2,-30.6,81,-15.3,81.1,0.1C81.3,15.5,80.9,31,72.9,40.6C64.8,50.3,49.1,54.1,35.7,61.6C22.3,69.2,11.1,80.4,0.3,79.9C-10.6,79.4,-21.1,67.2,-31.2,57.7C-41.2,48.2,-50.7,41.5,-57.5,32.3C-64.3,23.2,-68.3,11.6,-71,-1.6C-73.7,-14.7,-75.1,-29.4,-68.3,-38.7C-61.6,-47.9,-46.8,-51.7,-34.1,-60.3C-21.3,-68.9,-10.7,-82.5,0.3,-82.9C11.2,-83.4,22.4,-70.8,35.6,-62.4Z" transform="translate(100 100)" />
</svg>
